<?xml version="1.0" encoding="UTF-8" standalone="no"?>
<svg class="site-header-icon" viewBox="0 0 30 30" xmlns="http://www.w3.org/2000/svg">
  <g stroke="none" fill="none" fill-rule="evenodd">
    <path class="svg-fill" d="M19.3298647,10.4525682 C20.5306855,11.5962857 21.2790698,13.2107456 21.2790698,15 C21.2790698,18.4678345 18.4678345,21.2790698 15,21.2790698 C13.2107456,21.2790698 11.5962857,20.5306855 10.4525682,19.3298647 L5.64190877,24.1405241 C3.3382764,21.7824056 1.91860465,18.5569938 1.91860465,15 C1.91860465,7.77534484 7.77534484,1.91860465 15,1.91860465 C18.5569938,1.91860465 21.7824056,3.3382764 24.1405241,5.64190877 L24.1405241,5.64190877 L19.3298647,10.4525682 L19.3298647,10.4525682 Z M15,30 C23.2842712,30 30,23.2842712 30,15 C30,6.71572875 23.2842712,0 15,0 C6.71572875,0 0,6.71572875 0,15 C0,23.2842712 6.71572875,30 15,30 L15,30 Z M15,28.0813953 C22.2246552,28.0813953 28.0813953,22.2246552 28.0813953,15 C28.0813953,7.77534484 22.2246552,1.91860465 15,1.91860465 C7.77534484,1.91860465 1.91860465,7.77534484 1.91860465,15 C1.91860465,22.2246552 7.77534484,28.0813953 15,28.0813953 L15,28.0813953 Z M15,19.5348837 C17.5045471,19.5348837 19.5348837,17.5045471 19.5348837,15 C19.5348837,12.4954529 17.5045471,10.4651163 15,10.4651163 C12.4954529,10.4651163 10.4651163,12.4954529 10.4651163,15 C10.4651163,17.5045471 12.4954529,19.5348837 15,19.5348837 L15,19.5348837 Z"></path>
  </g>
</svg>
