<?xml version="1.0" encoding="UTF-8" standalone="no"?>
<svg width="172px" height="172px" viewBox="0 0 172 172" version="1.1" xmlns="http://www.w3.org/2000/svg" xmlns:xlink="http://www.w3.org/1999/xlink">
  <g stroke="none" stroke-width="1" fill="none" fill-rule="evenodd">
    <path d="M110.824558,59.9280575 C117.709263,66.4853714 122,75.7416081 122,86 C122,105.882251 105.882251,122 86,122 C75.7416081,122 66.4853714,117.709263 59.9280575,110.824558 L32.3469436,138.405671 C19.1394514,124.885792 11,106.393431 11,86 C11,44.5786438 44.5786438,11 86,11 C106.393431,11 124.885792,19.1394514 138.405671,32.3469436 L138.405671,32.3469436 L110.824558,59.9280575 L110.824558,59.9280575 Z M86,172 C133.496488,172 172,133.496488 172,86 C172,38.5035115 133.496488,0 86,0 C38.5035115,0 0,38.5035115 0,86 C0,133.496488 38.5035115,172 86,172 L86,172 Z M86,161 C127.421356,161 161,127.421356 161,86 C161,44.5786438 127.421356,11 86,11 C44.5786438,11 11,44.5786438 11,86 C11,127.421356 44.5786438,161 86,161 L86,161 Z M86,112 C100.359403,112 112,100.359403 112,86 C112,71.6405965 100.359403,60 86,60 C71.6405965,60 60,71.6405965 60,86 C60,100.359403 71.6405965,112 86,112 L86,112 Z" fill="#E95C5A"></path>
  </g>
</svg>
