<?xml version="1.0" encoding="UTF-8" standalone="no"?>
<svg viewBox="0 0 216 216" xmlns="http://www.w3.org/2000/svg">
  <g stroke="none" fill="none" fill-rule="evenodd">
    <path class="hero-logo-fill" d="M139.175026,75.2584908 C147.820935,83.4932571 153.209302,95.1173683 153.209302,108 C153.209302,132.968408 132.968408,153.209302 108,153.209302 C95.1173683,153.209302 83.4932571,147.820935 75.2584908,139.175026 L40.6217432,173.811773 C24.0355901,156.83332 13.8139535,133.610356 13.8139535,108 C13.8139535,55.9824829 55.9824829,13.8139535 108,13.8139535 C133.610356,13.8139535 156.83332,24.0355901 173.811773,40.6217432 L173.811773,40.6217432 L139.175026,75.2584908 L139.175026,75.2584908 Z M108,216 C167.646753,216 216,167.646753 216,108 C216,48.353247 167.646753,0 108,0 C48.353247,0 0,48.353247 0,108 C0,167.646753 48.353247,216 108,216 L108,216 Z M108,202.186047 C160.017517,202.186047 202.186047,160.017517 202.186047,108 C202.186047,55.9824829 160.017517,13.8139535 108,13.8139535 C55.9824829,13.8139535 13.8139535,55.9824829 13.8139535,108 C13.8139535,160.017517 55.9824829,202.186047 108,202.186047 L108,202.186047 Z M108,140.651163 C126.032739,140.651163 140.651163,126.032739 140.651163,108 C140.651163,89.9672607 126.032739,75.3488372 108,75.3488372 C89.9672607,75.3488372 75.3488372,89.9672607 75.3488372,108 C75.3488372,126.032739 89.9672607,140.651163 108,140.651163 L108,140.651163 Z"></path>
  </g>
</svg>
