<?xml version="1.0" standalone="no"?>
<!DOCTYPE svg PUBLIC "-//W3C//DTD SVG 20010904//EN"
 "http://www.w3.org/TR/2001/REC-SVG-20010904/DTD/svg10.dtd">
<svg version="1.0" xmlns="http://www.w3.org/2000/svg"
 width="700.000000pt" height="700.000000pt" viewBox="0 0 700.000000 700.000000"
 preserveAspectRatio="xMidYMid meet">
<metadata>
Created by potrace 1.11, written by Peter Selinger 2001-2013
</metadata>
<g transform="translate(0.000000,700.000000) scale(0.100000,-0.100000)"
fill="#000000" stroke="none">
<path d="M3298 6995 c-2 -1 -41 -5 -88 -9 -100 -7 -225 -22 -295 -36 -27 -5
-61 -12 -75 -14 -596 -109 -1206 -409 -1660 -817 -126 -114 -178 -166 -331
-335 -107 -118 -286 -370 -386 -545 -158 -274 -309 -656 -369 -932 -20 -90
-53 -272 -59 -322 -4 -33 -9 -69 -11 -80 -18 -95 -25 -522 -12 -690 8 -104 25
-233 42 -320 2 -11 6 -36 10 -55 49 -272 156 -595 283 -857 449 -928 1279
-1611 2270 -1868 72 -19 142 -36 155 -39 13 -2 60 -11 106 -20 46 -9 111 -19
145 -22 34 -3 65 -8 68 -9 15 -10 227 -20 409 -20 188 0 341 8 430 21 144 21
295 48 345 61 33 8 67 16 75 18 109 22 388 117 549 187 121 53 308 148 353
179 14 11 29 19 33 19 25 0 384 257 494 354 121 106 294 279 366 366 21 25 41
47 44 50 4 3 45 55 91 115 332 436 547 915 654 1456 14 70 28 155 32 190 3 35
8 67 10 70 9 17 19 214 18 399 0 188 -6 331 -19 420 -3 19 -7 56 -10 81 -3 25
-7 54 -9 65 -2 10 -11 60 -21 109 -85 456 -276 915 -543 1305 -56 82 -194 265
-211 280 -3 3 -35 38 -70 78 -478 546 -1168 947 -1888 1097 -100 20 -248 43
-393 60 -56 7 -526 16 -532 10z m2408 -1387 c267 -277 509 -657 639 -1003 74
-195 130 -395 160 -575 9 -52 18 -106 20 -120 27 -158 27 -668 0 -820 -3 -14
-7 -41 -10 -60 -3 -19 -7 -46 -10 -60 -3 -14 -7 -38 -10 -55 -22 -135 -109
-432 -154 -530 -10 -22 -22 -51 -26 -65 -15 -50 -157 -324 -222 -428 -57 -92
-194 -287 -212 -302 -3 -3 -31 -34 -60 -70 -497 -592 -1262 -991 -2031 -1058
-171 -14 -584 -7 -700 13 -14 2 -68 11 -120 20 -52 9 -111 20 -130 25 -19 5
-46 11 -60 14 -53 10 -270 77 -357 110 -389 148 -729 363 -1032 652 l-75 71
561 561 561 561 28 -27 c424 -404 999 -530 1536 -337 362 130 677 423 830 770
40 90 75 188 82 225 3 14 12 57 20 96 56 259 27 579 -75 827 -78 189 -169 328
-317 485 l-32 34 558 558 c306 308 560 559 563 559 3 1 37 -32 75 -71z m-2046
-1062 c419 -66 765 -381 864 -788 26 -104 33 -170 30 -284 -6 -280 -112 -525
-313 -724 -164 -162 -338 -251 -571 -293 -72 -13 -278 -15 -330 -3 -14 3 -38
8 -55 12 -378 75 -692 367 -799 740 -75 263 -49 533 75 774 188 366 550 583
959 574 52 -1 115 -5 140 -8z"/>
</g>
</svg>
